<svg xmlns="http://www.w3.org/2000/svg" viewBox="0 0 1600 900" width="1600" height="900"><title>Napa Walks — 02-hero-text-left</title><desc>Rounded flowing paths and circles in the Napa Walks brand palette. Decorative website artwork.</desc><path fill="#FEF0C5" d="M0 0H1600V900H0Z"/><g transform="translate(850 -65) scale(1.03)"><path d="M30 750V230" fill="none" stroke="#00978E" stroke-width="48" stroke-linecap="round" stroke-linejoin="round" opacity="1"/><path d="M100 830V150" fill="none" stroke="#A3C89E" stroke-width="55" stroke-linecap="round" stroke-linejoin="round" opacity="1"/><path d="M170 870V310" fill="none" stroke="#F2AD32" stroke-width="65" stroke-linecap="round" stroke-linejoin="round" opacity="1"/><path d="M235 840V100" fill="none" stroke="#E36628" stroke-width="55" stroke-linecap="round" stroke-linejoin="round" opacity="1"/><path d="M315 920V450C315 330 405 320 405 190S515 30 550 120V730" fill="none" stroke="#59AA80" stroke-width="90" stroke-linecap="round" stroke-linejoin="round" opacity="1"/><path d="M425 850V500C425 360 540 350 540 230V120" fill="none" stroke="#00978E" stroke-width="45" stroke-linecap="round" stroke-linejoin="round" opacity="1"/><path d="M645 790V235" fill="none" stroke="#F2AD32" stroke-width="54" stroke-linecap="round" stroke-linejoin="round" opacity="1"/><path d="M700 700V380" fill="none" stroke="#E36628" stroke-width="38" stroke-linecap="round" stroke-linejoin="round" opacity="1"/><path d="M580 800V100C580 5 470 15 435 125S350 320 280 360" fill="none" stroke="#E36628" stroke-width="60" stroke-linecap="round" stroke-linejoin="round" opacity="1"/><path d="M370 320V810" fill="none" stroke="#FEF0C5" stroke-width="2" stroke-linecap="round" stroke-linejoin="round" opacity="0.65"/><path d="M388 320V810" fill="none" stroke="#FEF0C5" stroke-width="2" stroke-linecap="round" stroke-linejoin="round" opacity="0.65"/><path d="M406 320V810" fill="none" stroke="#FEF0C5" stroke-width="2" stroke-linecap="round" stroke-linejoin="round" opacity="0.65"/><path d="M424 320V810" fill="none" stroke="#FEF0C5" stroke-width="2" stroke-linecap="round" stroke-linejoin="round" opacity="0.65"/><path d="M442 320V810" fill="none" stroke="#FEF0C5" stroke-width="2" stroke-linecap="round" stroke-linejoin="round" opacity="0.65"/><path d="M460 320V810" fill="none" stroke="#FEF0C5" stroke-width="2" stroke-linecap="round" stroke-linejoin="round" opacity="0.65"/><path d="M478 320V810" fill="none" stroke="#FEF0C5" stroke-width="2" stroke-linecap="round" stroke-linejoin="round" opacity="0.65"/><path d="M496 320V810" fill="none" stroke="#FEF0C5" stroke-width="2" stroke-linecap="round" stroke-linejoin="round" opacity="0.65"/><path d="M514 320V810" fill="none" stroke="#FEF0C5" stroke-width="2" stroke-linecap="round" stroke-linejoin="round" opacity="0.65"/><path d="M532 320V810" fill="none" stroke="#FEF0C5" stroke-width="2" stroke-linecap="round" stroke-linejoin="round" opacity="0.65"/><path d="M550 320V810" fill="none" stroke="#FEF0C5" stroke-width="2" stroke-linecap="round" stroke-linejoin="round" opacity="0.65"/><path d="M568 320V810" fill="none" stroke="#FEF0C5" stroke-width="2" stroke-linecap="round" stroke-linejoin="round" opacity="0.65"/><path d="M586 320V810" fill="none" stroke="#FEF0C5" stroke-width="2" stroke-linecap="round" stroke-linejoin="round" opacity="0.65"/><path d="M604 320V810" fill="none" stroke="#FEF0C5" stroke-width="2" stroke-linecap="round" stroke-linejoin="round" opacity="0.65"/><circle cx="215" cy="430" r="153" fill="#E36628" /><circle cx="215" cy="430" r="108" fill="#F2AD32" /><circle cx="215" cy="430" r="56" fill="#FEF0C5" /><circle cx="390" cy="340" r="62" fill="#FEF0C5" /><circle cx="390" cy="340" r="50" fill="#A3C89E" /><circle cx="390" cy="340" r="28" fill="#00978E" /><circle cx="390" cy="340" r="22" fill="#E36628" /><circle cx="310" cy="550" r="43" fill="#A3C89E" /><circle cx="445" cy="580" r="62" fill="#DFE3C5" /><circle cx="445" cy="580" r="47" fill="#E36628" /><circle cx="365" cy="670" r="53" fill="#F2AD32" /><circle cx="510" cy="765" r="67" fill="#FEF0C5" /><circle cx="345" cy="820" r="65" fill="#A3C89E" /><circle cx="510" cy="650" r="22" fill="#00978E" /><circle cx="180" cy="195" r="30" fill="#59AA80" /><circle cx="250" cy="210" r="32" fill="#F2AD32" /><circle cx="120" cy="485" r="24" fill="#FEF0C5" /><circle cx="325" cy="917" r="6" fill="#59AA80" /><circle cx="641" cy="105" r="10" fill="#00978E" /><circle cx="609" cy="138" r="7" fill="#DFE3C5" /><circle cx="260" cy="66" r="6" fill="#59AA80" /><circle cx="383" cy="50" r="10" fill="#59AA80" /><circle cx="446" cy="860" r="9" fill="#59AA80" /><circle cx="555" cy="904" r="7" fill="#F2AD32" /><circle cx="450" cy="874" r="10" fill="#F2AD32" /><circle cx="652" cy="43" r="6" fill="#59AA80" /><circle cx="587" cy="912" r="4" fill="#DFE3C5" /><circle cx="346" cy="893" r="11" fill="#E36628" /><circle cx="230" cy="878" r="5" fill="#E36628" /><circle cx="220" cy="871" r="6" fill="#DFE3C5" /><circle cx="542" cy="126" r="5" fill="#DFE3C5" /><circle cx="229" cy="911" r="5" fill="#E36628" /><circle cx="566" cy="894" r="8" fill="#59AA80" /><circle cx="483" cy="938" r="5" fill="#E36628" /><circle cx="694" cy="862" r="5" fill="#59AA80" /><circle cx="576" cy="925" r="11" fill="#A3C89E" /><circle cx="148" cy="937" r="9" fill="#DFE3C5" /><circle cx="553" cy="938" r="9" fill="#59AA80" /><circle cx="370" cy="882" r="7" fill="#E36628" /><circle cx="199" cy="871" r="11" fill="#DFE3C5" /><circle cx="322" cy="134" r="6" fill="#00978E" /><circle cx="218" cy="45" r="5" fill="#00978E" /><circle cx="248" cy="100" r="8" fill="#00978E" /><circle cx="230" cy="894" r="5" fill="#E36628" /><circle cx="557" cy="925" r="11" fill="#DFE3C5" /><circle cx="151" cy="59" r="7" fill="#E36628" /><circle cx="420" cy="887" r="5" fill="#00978E" /><circle cx="279" cy="113" r="4" fill="#00978E" /><circle cx="406" cy="931" r="11" fill="#F2AD32" /><circle cx="230" cy="869" r="8" fill="#59AA80" /><circle cx="235" cy="906" r="11" fill="#F2AD32" /><circle cx="529" cy="911" r="10" fill="#A3C89E" /><circle cx="661" cy="107" r="3" fill="#A3C89E" /><circle cx="546" cy="109" r="3" fill="#00978E" /><circle cx="358" cy="56" r="8" fill="#A3C89E" /><circle cx="272" cy="917" r="3" fill="#F2AD32" /><circle cx="574" cy="111" r="7" fill="#E36628" /></g></svg>